# xmcd
#
# Track frame offsets:
#	150
#	22953
#	48135
#	73414
#	90588
#	115825
#	186910
#	205016
#	231632
#	256750
#	283985
#	309945
#	313273
#
# Disc length: 4239 seconds
#
# Revision: 1
# Processed by: cddbd v1.5PL3 Copyright (c) Steve Scherf et al.
# Submitted via: audiograbber 1.83.01
#
DISCID=b9108d0d
DTITLE=Claudio Baglioni - Acustico (disc2)
DYEAR=1900
DGENRE=Italiana
TTITLE0=adesso la pubblicità
TTITLE1=quante volte
TTITLE2=bolero
TTITLE3=domani mai
TTITLE4=avrai
TTITLE5=Canzoniere del tempo
TTITLE6=a domani
TTITLE7=cuore di aliante
TTITLE8=mille giorni di te e di me
TTITLE9=io son qui
TTITLE10=via
TTITLE11=presentazione
TTITLE12=titoli di coda
EXTD=
EXTT0=
EXTT1=
EXTT2=
EXTT3=
EXTT4=
EXTT5=
EXTT6=
EXTT7=
EXTT8=
EXTT9=
EXTT10=
EXTT11=
EXTT12=
PLAYORDER=
